# xmcd
#
# Track frame offsets:
#	150
#	14338
#	32504
#	46555
#	64811
#	77667
#	93290
#	111266
#	129593
#	143559
#	153708
#	167152
#
# Disc length: 2434 seconds
#
# Revision: 0
# Processed by: cddbd v1.5.1PL0 Copyright (c) Steve Scherf et al.
# Submitted via: EasyCDDAExtractor 8.0.1.1
#
DISCID=9109800c
DTITLE=Rolando Boldrin - Caipira 1
DYEAR=2004
DGENRE=Caipira
TTITLE0=Mestre Carreiro
TTITLE1=Chico Mulato
TTITLE2=Minas Gerais
TTITLE3=Seresta
TTITLE4=Que Linda Morena
TTITLE5=Piracicaba
TTITLE6=João Carreiro
TTITLE7=Meu Cavalo Zaino
TTITLE8=Gostei Da Morena
TTITLE9=Aquela Flor
TTITLE10=Boiadeiro Apaixonado
TTITLE11=Coração De Violeiro
EXTD=
EXTT0=
EXTT1=
EXTT2=
EXTT3=
EXTT4=
EXTT5=
EXTT6=
EXTT7=
EXTT8=
EXTT9=
EXTT10=
EXTT11=
PLAYORDER=
